<svg id="svg" xmlns="http://www.w3.org/2000/svg" xmlns:xlink="http://www.w3.org/1999/xlink" width="400" height="114.64" viewBox="0, 0, 400,114.64"><g id="svgg"><path id="path0" d="M32.917 0.093 C 32.733 0.127,31.946 0.189,31.167 0.230 C 30.387 0.272,29.488 0.345,29.167 0.392 C 28.846 0.440,28.098 0.519,27.504 0.569 C 26.413 0.661,25.404 0.836,23.583 1.251 C 23.033 1.376,22.358 1.524,22.083 1.580 C 21.493 1.700,17.898 2.788,17.417 2.993 C 16.598 3.341,14.747 4.085,14.669 4.097 C 14.622 4.105,14.358 4.211,14.083 4.333 C 13.808 4.455,13.546 4.565,13.500 4.577 C 11.006 5.237,4.385 10.745,3.726 12.708 C 3.672 12.869,3.575 13.000,3.511 13.000 C 2.960 13.000,0.540 19.920,0.539 21.500 C 0.539 21.637,0.487 21.975,0.424 22.250 C -0.245 25.166,-0.056 37.044,0.703 39.750 C 0.805 40.117,0.907 40.492,0.928 40.583 C 1.166 41.619,2.161 44.288,2.659 45.226 C 3.556 46.916,5.010 49.401,5.159 49.500 C 5.229 49.546,5.659 50.033,6.116 50.583 C 7.077 51.742,8.461 53.112,9.417 53.851 C 10.313 54.544,13.964 57.000,14.099 57.000 C 14.224 57.000,15.868 57.969,17.112 58.775 C 17.585 59.082,18.048 59.333,18.139 59.333 C 18.231 59.333,18.331 59.390,18.361 59.460 C 18.392 59.529,18.792 59.783,19.250 60.023 C 22.014 61.472,23.445 62.255,25.441 63.412 C 26.069 63.777,27.161 64.346,27.867 64.677 C 28.573 65.008,29.248 65.356,29.367 65.450 C 29.486 65.543,30.183 65.943,30.917 66.339 C 31.650 66.734,32.475 67.193,32.750 67.358 C 33.025 67.524,33.887 67.998,34.667 68.411 C 35.446 68.825,36.358 69.333,36.693 69.540 C 37.028 69.747,37.916 70.292,38.666 70.750 C 39.416 71.208,40.196 71.696,40.401 71.833 C 40.605 71.971,41.029 72.248,41.344 72.450 C 45.631 75.196,46.923 77.987,47.266 85.250 C 47.605 92.399,45.450 95.696,40.433 95.702 C 36.991 95.707,35.730 94.982,34.925 92.534 C 34.547 91.386,34.528 91.251,34.253 87.750 C 34.225 87.383,34.193 83.877,34.184 79.958 L 34.167 72.833 17.583 72.833 L 1.000 72.833 0.971 76.542 C 0.914 83.924,1.052 86.884,1.601 90.083 C 1.742 90.908,1.890 91.817,1.928 92.102 C 2.157 93.810,4.212 99.992,4.664 100.333 C 4.725 100.379,4.952 100.735,5.168 101.125 C 5.384 101.515,5.623 101.833,5.697 101.833 C 5.772 101.833,5.833 101.931,5.833 102.051 C 5.833 103.330,16.404 110.824,17.368 110.229 C 17.440 110.184,17.500 110.218,17.500 110.305 C 17.500 110.393,17.706 110.514,17.958 110.574 C 18.210 110.635,19.017 110.916,19.750 111.198 C 20.483 111.481,21.308 111.772,21.583 111.845 C 21.858 111.917,22.758 112.176,23.583 112.419 C 26.279 113.213,29.740 113.888,32.250 114.109 C 32.617 114.142,33.329 114.224,33.833 114.292 C 34.982 114.448,47.976 114.457,49.667 114.303 C 50.913 114.190,52.968 113.921,53.917 113.748 C 56.274 113.317,57.674 113.015,58.998 112.651 C 60.963 112.111,62.637 111.572,64.080 111.014 C 64.811 110.731,65.533 110.500,65.684 110.500 C 65.835 110.500,66.054 110.386,66.170 110.246 C 66.286 110.106,66.416 110.027,66.460 110.071 C 66.582 110.193,70.118 108.383,71.356 107.564 C 71.964 107.162,72.545 106.833,72.647 106.833 C 72.750 106.833,72.833 106.775,72.833 106.703 C 72.833 106.631,73.077 106.428,73.375 106.252 C 74.116 105.815,76.898 102.938,77.567 101.917 C 78.416 100.622,79.419 98.583,79.561 97.864 C 79.592 97.710,79.659 97.471,79.710 97.333 C 81.005 93.872,81.755 81.498,80.937 77.083 C 80.903 76.900,80.825 76.300,80.763 75.750 C 80.651 74.747,80.161 71.978,79.819 70.417 C 79.304 68.064,77.405 63.532,76.524 62.554 C 76.373 62.387,76.137 62.030,76.000 61.762 C 75.737 61.248,72.729 58.176,71.481 57.147 C 70.473 56.316,67.074 53.833,66.944 53.833 C 66.886 53.833,65.881 53.209,64.711 52.446 C 62.573 51.052,61.875 50.642,59.417 49.332 C 58.683 48.941,57.965 48.519,57.820 48.394 C 57.675 48.269,57.516 48.167,57.466 48.167 C 57.415 48.167,56.578 47.722,55.604 47.178 C 54.630 46.634,53.833 46.215,53.833 46.246 C 53.833 46.326,47.628 43.172,47.375 42.964 C 47.260 42.870,47.167 42.838,47.167 42.893 C 47.167 42.948,46.833 42.807,46.426 42.580 C 46.019 42.353,45.616 42.167,45.531 42.167 C 45.446 42.167,44.434 41.653,43.283 41.025 C 42.132 40.397,40.941 39.757,40.637 39.603 C 39.992 39.278,39.767 39.141,38.436 38.268 C 37.045 37.355,36.934 37.256,35.413 35.602 C 33.237 33.234,32.691 24.685,34.522 21.635 C 35.832 19.452,37.006 18.807,39.692 18.795 C 43.038 18.780,44.399 19.914,44.774 23.033 C 44.821 23.427,44.884 23.938,44.913 24.167 C 44.943 24.396,44.974 27.077,44.983 30.125 L 45.000 35.667 61.691 35.667 L 78.383 35.667 78.281 30.125 C 78.047 17.352,76.100 11.495,70.933 8.020 C 69.040 6.747,67.019 5.536,66.932 5.623 C 66.878 5.678,66.833 5.648,66.833 5.557 C 66.833 5.467,66.440 5.222,65.958 5.013 C 65.477 4.804,64.858 4.534,64.583 4.413 C 62.866 3.655,57.914 2.032,56.417 1.735 C 56.233 1.699,55.896 1.624,55.667 1.569 C 54.955 1.397,53.115 1.033,52.417 0.927 C 52.050 0.871,51.637 0.794,51.500 0.756 C 51.274 0.692,50.530 0.605,48.583 0.412 C 48.217 0.375,47.729 0.299,47.500 0.243 C 47.047 0.131,33.462 -0.009,32.917 0.093 M79.819 2.236 C 79.781 2.274,79.770 7.299,79.794 13.403 L 79.838 24.500 90.252 24.500 L 100.667 24.500 100.667 68.417 L 100.667 112.335 118.542 112.292 L 136.417 112.250 136.459 68.375 L 136.501 24.500 147.000 24.500 L 157.500 24.500 157.500 13.333 L 157.500 2.167 118.694 2.167 C 97.351 2.167,79.858 2.198,79.819 2.236 M162.500 2.336 C 162.500 2.429,162.271 3.835,161.992 5.461 C 161.554 8.004,161.243 9.873,160.749 12.917 C 160.469 14.643,160.378 15.427,160.446 15.542 C 160.487 15.610,160.455 15.667,160.376 15.667 C 160.297 15.667,160.215 15.985,160.195 16.375 C 160.174 16.765,159.977 18.133,159.757 19.417 C 159.536 20.700,159.312 22.053,159.259 22.423 C 159.205 22.794,159.124 23.281,159.078 23.507 C 159.033 23.732,158.889 24.554,158.760 25.333 C 158.630 26.113,158.372 27.613,158.186 28.667 C 158.001 29.721,157.814 30.808,157.771 31.083 C 157.728 31.358,157.497 32.708,157.257 34.083 C 157.017 35.458,156.789 36.846,156.748 37.167 C 156.708 37.487,156.601 38.200,156.510 38.750 C 156.251 40.312,156.196 40.685,156.078 41.667 C 156.017 42.171,155.945 42.696,155.917 42.833 C 155.861 43.109,154.237 52.617,154.109 53.417 C 154.065 53.692,153.916 54.554,153.777 55.333 C 153.639 56.112,153.478 57.087,153.421 57.500 C 153.364 57.913,153.214 58.775,153.087 59.417 C 152.819 60.781,152.675 61.659,152.569 62.583 C 152.528 62.950,152.421 63.663,152.334 64.167 C 152.246 64.671,152.060 65.871,151.921 66.833 C 151.782 67.796,151.401 70.121,151.074 72.000 C 150.748 73.879,150.370 76.092,150.234 76.917 C 150.098 77.742,149.948 78.642,149.899 78.917 C 149.180 82.959,149.011 84.049,149.085 84.169 C 149.133 84.247,149.102 84.354,149.016 84.407 C 148.861 84.502,148.573 86.401,148.604 87.125 C 148.612 87.331,148.562 87.500,148.493 87.500 C 148.423 87.500,148.382 87.729,148.402 88.010 C 148.421 88.290,148.392 88.547,148.337 88.581 C 148.282 88.615,148.219 88.930,148.197 89.280 C 148.162 89.851,147.738 92.409,146.158 101.583 C 145.461 105.635,144.983 108.505,144.909 109.083 C 144.874 109.358,144.743 110.108,144.617 110.750 C 144.491 111.392,144.420 112.010,144.458 112.125 C 144.513 112.290,148.356 112.333,162.927 112.333 L 181.327 112.333 181.404 111.958 C 182.123 108.484,182.458 101.941,182.248 95.500 C 182.201 94.079,182.090 89.204,181.999 84.667 C 181.909 80.129,181.798 74.917,181.752 73.083 C 181.706 71.250,181.631 67.650,181.584 65.083 C 181.537 62.517,181.462 58.842,181.417 56.917 C 181.318 52.669,181.234 48.886,180.919 34.500 C 180.786 28.404,180.637 22.329,180.589 21.000 C 180.540 19.671,180.494 17.413,180.486 15.982 C 180.476 14.331,180.400 13.260,180.277 13.052 C 180.171 12.871,179.915 12.467,179.709 12.153 C 179.167 11.328,179.208 10.390,179.823 9.540 C 181.489 7.241,184.174 10.066,182.594 12.455 C 182.185 13.071,182.162 13.221,182.179 15.083 C 182.201 17.557,182.222 17.605,183.606 18.438 C 187.420 20.734,189.263 21.933,190.858 23.158 C 191.303 23.500,192.100 24.623,192.874 26.000 C 193.106 26.412,193.660 27.387,194.106 28.166 L 194.917 29.582 194.962 31.583 C 195.018 34.005,195.071 34.280,195.511 34.420 C 196.193 34.637,197.019 35.566,198.125 37.361 C 200.217 40.759,200.075 40.413,200.079 42.096 C 200.083 43.610,200.578 44.833,201.185 44.833 C 201.277 44.833,201.313 44.897,201.265 44.976 C 201.217 45.054,201.357 45.287,201.576 45.493 C 201.796 45.700,202.253 46.517,202.592 47.309 C 202.931 48.102,203.380 49.050,203.591 49.417 C 204.034 50.186,204.734 52.091,205.162 53.691 C 205.508 54.985,205.538 63.778,205.201 65.167 C 205.094 65.611,205.006 68.091,204.986 71.250 C 204.950 76.793,204.789 78.758,204.162 81.250 C 203.978 81.983,203.782 82.968,203.727 83.437 C 203.573 84.737,203.379 84.634,200.956 81.973 C 199.583 80.465,198.942 80.058,196.637 79.230 C 193.615 78.145,193.458 77.931,193.896 75.493 C 194.209 73.754,194.293 73.114,194.433 71.413 C 194.561 69.863,194.478 69.727,193.323 69.592 C 189.163 69.103,188.726 68.125,189.988 62.120 C 190.369 60.307,190.634 58.748,190.576 58.655 C 190.453 58.455,189.194 57.644,188.932 57.596 C 188.832 57.577,188.412 57.406,188.000 57.214 C 186.988 56.745,185.133 56.296,184.098 56.271 L 183.250 56.250 183.250 57.333 C 183.250 59.412,183.518 70.589,183.586 71.333 C 183.623 71.746,183.699 73.607,183.755 75.469 C 183.811 77.331,183.882 78.988,183.914 79.151 C 183.993 79.564,184.335 90.051,184.337 92.125 L 184.337 92.500 190.161 92.500 L 195.985 92.500 196.069 93.042 C 196.115 93.340,196.198 94.296,196.254 95.167 C 196.310 96.037,196.380 96.975,196.409 97.250 C 196.439 97.525,196.509 98.237,196.565 98.833 C 196.621 99.429,196.706 100.329,196.753 100.833 C 196.932 102.733,197.031 103.728,197.523 108.625 L 197.896 112.333 231.031 112.333 L 264.167 112.333 264.167 87.907 C 264.167 71.882,264.223 63.515,264.331 63.582 C 264.422 63.638,264.618 64.111,264.768 64.633 C 264.918 65.156,265.122 65.733,265.221 65.917 C 265.320 66.100,265.416 66.343,265.435 66.456 C 265.454 66.570,265.825 67.583,266.258 68.706 C 267.698 72.438,267.871 72.904,268.502 74.750 C 269.040 76.322,270.299 79.699,271.732 83.417 C 271.945 83.967,272.209 84.717,272.321 85.083 C 272.517 85.729,273.057 87.236,273.336 87.917 C 273.411 88.100,273.896 89.375,274.415 90.750 C 274.934 92.125,275.425 93.400,275.507 93.583 C 275.589 93.767,275.952 94.779,276.314 95.833 C 276.934 97.643,277.748 99.877,278.468 101.750 C 278.644 102.208,279.099 103.390,279.478 104.377 C 279.857 105.363,280.167 106.282,280.167 106.418 C 280.167 106.555,280.226 106.667,280.298 106.667 C 280.370 106.667,280.440 106.807,280.453 106.979 C 280.466 107.151,280.788 108.107,281.169 109.104 C 281.550 110.101,281.975 111.236,282.114 111.626 L 282.365 112.335 298.058 112.293 L 313.750 112.250 313.792 57.208 L 313.834 2.167 298.834 2.167 L 283.833 2.167 283.833 26.611 C 283.833 40.056,283.793 51.016,283.745 50.967 C 283.696 50.918,283.627 50.737,283.591 50.564 C 283.527 50.256,282.291 47.213,280.755 43.583 C 280.329 42.575,279.863 41.375,279.721 40.917 C 279.579 40.458,279.325 39.783,279.157 39.417 C 278.990 39.050,278.502 37.887,278.073 36.833 C 277.644 35.779,276.997 34.204,276.635 33.333 C 276.273 32.462,275.951 31.637,275.920 31.500 C 275.889 31.363,275.769 31.025,275.654 30.750 C 275.539 30.475,275.432 30.212,275.417 30.167 C 275.381 30.060,275.062 29.251,274.759 28.500 C 274.630 28.179,274.023 26.721,273.410 25.259 C 272.797 23.797,272.199 22.334,272.081 22.009 C 271.964 21.683,271.772 21.192,271.656 20.917 C 271.540 20.642,271.432 20.379,271.416 20.333 C 271.288 19.957,271.052 19.352,270.474 17.917 C 270.105 17.000,269.281 14.938,268.643 13.333 C 268.005 11.729,267.337 10.108,267.158 9.732 C 266.980 9.355,266.833 8.988,266.833 8.916 C 266.833 8.845,266.578 8.178,266.267 7.435 C 265.955 6.691,265.338 5.202,264.895 4.125 L 264.090 2.167 249.128 2.167 L 234.167 2.167 234.144 56.208 C 234.131 85.931,234.087 110.063,234.046 109.833 C 234.004 109.604,233.712 108.104,233.396 106.500 C 232.612 102.514,232.062 99.507,231.828 97.917 C 231.720 97.183,231.597 96.433,231.556 96.250 C 231.514 96.067,231.443 95.692,231.398 95.417 C 231.352 95.142,231.199 94.354,231.057 93.667 C 230.915 92.979,230.762 92.154,230.717 91.833 C 230.672 91.513,230.350 89.787,230.001 88.000 C 229.242 84.108,227.744 75.986,227.572 74.833 C 227.538 74.604,227.432 74.004,227.337 73.500 C 227.242 72.996,227.123 72.358,227.073 72.083 C 227.023 71.808,226.832 70.796,226.647 69.833 C 226.463 68.871,226.275 67.858,226.229 67.583 C 226.182 67.308,225.993 66.333,225.807 65.417 C 225.621 64.500,225.448 63.600,225.421 63.417 C 225.395 63.233,225.073 61.471,224.705 59.500 C 224.119 56.358,223.936 55.321,223.572 53.083 C 223.527 52.808,223.450 52.399,223.400 52.173 C 223.350 51.947,223.049 50.372,222.731 48.673 C 222.413 46.974,222.115 45.396,222.069 45.167 C 221.299 41.307,220.073 34.631,219.943 33.583 C 219.897 33.217,219.737 32.279,219.586 31.500 C 219.436 30.721,219.276 29.858,219.232 29.583 C 219.188 29.308,219.046 28.558,218.916 27.917 C 218.786 27.275,218.454 25.550,218.178 24.083 C 217.901 22.617,217.303 19.467,216.848 17.083 C 216.393 14.700,215.982 12.450,215.934 12.083 C 215.769 10.814,215.644 10.074,215.241 8.000 C 214.748 5.458,214.167 2.343,214.167 2.242 C 214.167 2.200,202.542 2.167,188.333 2.167 C 170.969 2.167,162.500 2.222,162.500 2.336 M317.625 57.258 L 317.583 112.354 345.000 112.287 C 360.079 112.251,372.642 112.177,372.917 112.123 C 373.192 112.069,374.129 111.979,375.000 111.923 C 377.097 111.790,378.176 111.688,379.583 111.493 C 381.021 111.293,384.493 110.663,384.833 110.540 C 384.971 110.491,385.233 110.423,385.417 110.390 C 385.600 110.357,385.863 110.282,386.000 110.223 C 386.137 110.164,386.381 110.091,386.541 110.059 C 388.334 109.707,393.332 106.819,394.762 105.309 C 395.639 104.382,395.712 104.287,396.891 102.500 C 397.987 100.840,398.661 99.095,399.081 96.833 C 399.123 96.604,399.235 96.011,399.330 95.515 C 399.424 95.019,399.471 94.582,399.433 94.544 C 399.395 94.506,399.425 94.262,399.500 94.001 C 399.574 93.740,399.699 92.715,399.776 91.722 C 399.955 89.419,399.962 28.810,399.783 26.583 C 399.709 25.667,399.620 24.504,399.585 24.000 C 399.550 23.495,399.474 22.858,399.415 22.583 C 399.356 22.308,399.305 21.971,399.302 21.833 C 399.222 19.021,396.814 14.177,394.188 11.551 C 392.621 9.984,391.074 8.622,390.908 8.664 C 390.842 8.681,390.741 8.624,390.685 8.538 C 390.409 8.113,385.138 5.634,383.667 5.238 C 383.529 5.201,383.042 5.059,382.583 4.922 C 380.825 4.397,380.058 4.206,379.333 4.114 C 378.921 4.061,378.358 3.978,378.083 3.929 C 370.362 2.553,362.604 2.233,335.959 2.191 L 317.668 2.161 317.625 57.258 M357.000 21.415 C 359.029 21.542,361.833 22.291,361.833 22.705 C 361.833 22.776,361.941 22.833,362.072 22.833 C 362.761 22.833,363.791 24.773,364.083 26.620 C 364.318 28.107,364.456 76.744,364.241 82.250 C 364.093 86.025,363.604 89.003,362.913 90.341 C 362.607 90.933,361.503 92.022,361.323 91.910 C 361.250 91.865,361.146 91.899,361.092 91.986 C 360.744 92.550,356.543 93.244,353.875 93.180 L 353.333 93.167 353.333 57.262 C 353.333 23.204,353.348 21.354,353.625 21.291 C 353.785 21.255,354.254 21.245,354.667 21.270 C 355.079 21.295,356.129 21.361,357.000 21.415 " stroke="none" fill="#ec3c3c" fill-rule="evenodd"></path><path id="path1" d="" stroke="none" fill="#ec4444" fill-rule="evenodd"></path><path id="path2" d="M317.582 57.250 C 317.582 87.500,317.602 99.900,317.625 84.805 C 317.648 69.711,317.648 44.961,317.625 29.805 C 317.602 14.650,317.582 27.000,317.582 57.250 M79.745 13.417 C 79.745 19.467,79.766 21.917,79.792 18.863 C 79.817 15.808,79.817 10.858,79.792 7.863 C 79.766 4.867,79.745 7.367,79.745 13.417 M364.205 31.667 C 364.205 31.988,364.240 32.119,364.282 31.958 C 364.323 31.798,364.323 31.535,364.282 31.375 C 364.240 31.215,364.205 31.346,364.205 31.667 M205.388 62.083 C 205.389 62.725,205.419 62.967,205.455 62.621 C 205.491 62.275,205.490 61.750,205.454 61.455 C 205.417 61.159,205.387 61.442,205.388 62.083 M0.905 76.500 C 0.905 78.563,0.929 79.406,0.958 78.375 C 0.987 77.344,0.987 75.656,0.958 74.625 C 0.929 73.594,0.905 74.438,0.905 76.500 M34.243 80.000 C 34.243 83.987,34.265 85.619,34.291 83.625 C 34.318 81.631,34.318 78.369,34.291 76.375 C 34.265 74.381,34.243 76.012,34.243 80.000 M364.169 80.125 C 364.171 80.459,364.212 80.519,364.320 80.348 C 364.402 80.219,364.431 80.013,364.383 79.890 C 364.248 79.538,364.166 79.627,364.169 80.125 " stroke="none" fill="#f03c3c" fill-rule="evenodd"></path><path id="path3" d="" stroke="none" fill="#ec3c44" fill-rule="evenodd"></path><path id="path4" d="M317.582 57.250 C 317.582 87.500,317.602 99.900,317.625 84.805 C 317.648 69.711,317.648 44.961,317.625 29.805 C 317.602 14.650,317.582 27.000,317.582 57.250 M79.745 13.417 C 79.745 19.467,79.766 21.917,79.792 18.863 C 79.817 15.808,79.817 10.858,79.792 7.863 C 79.766 4.867,79.745 7.367,79.745 13.417 M364.205 31.667 C 364.205 31.988,364.240 32.119,364.282 31.958 C 364.323 31.798,364.323 31.535,364.282 31.375 C 364.240 31.215,364.205 31.346,364.205 31.667 M205.388 62.083 C 205.389 62.725,205.419 62.967,205.455 62.621 C 205.491 62.275,205.490 61.750,205.454 61.455 C 205.417 61.159,205.387 61.442,205.388 62.083 M0.905 76.500 C 0.905 78.563,0.929 79.406,0.958 78.375 C 0.987 77.344,0.987 75.656,0.958 74.625 C 0.929 73.594,0.905 74.438,0.905 76.500 M34.243 80.000 C 34.243 83.987,34.265 85.619,34.291 83.625 C 34.318 81.631,34.318 78.369,34.291 76.375 C 34.265 74.381,34.243 76.012,34.243 80.000 M364.169 80.125 C 364.171 80.459,364.212 80.519,364.320 80.348 C 364.402 80.219,364.431 80.013,364.383 79.890 C 364.248 79.538,364.166 79.627,364.169 80.125 " stroke="none" fill="#f03c3c" fill-rule="evenodd"></path></g></svg>